<svg id="logo-4" xmlns="http://www.w3.org/2000/svg" width="340.925" height="76.637" viewBox="0 0 340.925 76.637">
  <path id="Path_1" data-name="Path 1" d="M66.413,44.586C66.935,27.565,61.809,7.11,55.7,2.81S37.54.089,28.671,1.4,7.8,4.7,3.126,10.6-.845,37.6,4.334,53.779,23.191,79.888,39.345,77.5,65.89,61.606,66.413,44.586Z" transform="translate(0 65.803) rotate(-82)" fill="#222"/>
  <g id="Group_1" data-name="Group 1" transform="translate(109.191 14.754)">
    <path id="Path_1572" data-name="Path 1572" d="M1288.575,391.593h-12.524V349.645h13.123c11.986,0,20.855,5.632,20.855,20.974C1310.03,385.362,1299.363,391.593,1288.575,391.593Zm.3-33.8h-4.434v25.649h4.134c8.809,0,12.825-5.154,12.825-12.825C1301.4,362.05,1297.744,357.795,1288.875,357.795Z" transform="translate(-1276.051 -347.906)" fill="#222"/>
    <path id="Path_1573" data-name="Path 1573" d="M1347.987,372.789a7.13,7.13,0,0,0-4.794-2.037c-3.236,0-5.333,1.378-5.333,6.832V394.6h-8.271V363.141h8.271v2.1a8.709,8.709,0,0,1,6.472-2.757,8.043,8.043,0,0,1,5.812,2.218Z" transform="translate(-1288.601 -350.915)" fill="#222"/>
    <path id="Path_1574" data-name="Path 1574" d="M1388.125,381.539h-18.818c.3,4.315,3.476,5.932,6.473,5.932a7.022,7.022,0,0,0,5.393-2.216l5.873,4.913c-2.516,3.236-7.071,5.094-11.265,5.094-9.049,0-14.8-6.413-14.8-16.36,0-9.649,6.052-16.421,14.023-16.421,8.39,0,13.244,7.431,13.244,16.421A25.865,25.865,0,0,1,1388.125,381.539Zm-13.544-11.866c-3,0-4.854,2.457-5.153,5.633h10.786C1379.975,372.489,1378.3,369.673,1374.582,369.673Z" transform="translate(-1295.96 -350.915)" fill="#222"/>
    <path id="Path_1575" data-name="Path 1575" d="M1422.064,394.6v-2.1a10.045,10.045,0,0,1-7.072,2.757c-5.873,0-11.747-3.6-11.747-11.207,0-6.952,5.633-10.427,12.765-10.427a13.038,13.038,0,0,1,6.053,1.259v-1.559c0-2.217-1.5-4.015-4.495-4.015a15.513,15.513,0,0,0-8.63,2.1l-3.176-5.753a21.163,21.163,0,0,1,11.806-3.177c7.61,0,12.765,3.956,12.765,11.027V394.6Zm0-13.183c-1.439-.9-2.818-1.319-5.752-1.319-3.118,0-4.795,1.439-4.795,3.955,0,2.218,1.258,4.2,4.795,4.2a6.766,6.766,0,0,0,5.752-2.876Z" transform="translate(-1305.868 -350.915)" fill="#222"/>
    <path id="Path_1576" data-name="Path 1576" d="M1485.52,394.6V377.584c0-5.633-1.618-7.311-5.034-7.311s-5.093,1.678-5.093,7.131v17.2h-8.271V377.584c0-5.633-1.618-7.311-5.034-7.311s-5.094,1.678-5.094,7.131v17.2h-8.27V363.141h8.27v2.1a9.108,9.108,0,0,1,6.892-2.757c4.015,0,6.353,1.139,8.69,4.016,2.157-2.218,4.794-4.016,10.007-4.016,8.031,0,11.207,5.514,11.207,14.384V394.6Z" transform="translate(-1316.529 -350.915)" fill="#222"/>
    <path id="Path_1577" data-name="Path 1577" d="M1518.077,391.061V351.509l8.271-4.135v43.687Z" transform="translate(-1332.787 -347.374)" fill="#222"/>
    <path id="Path_1578" data-name="Path 1578" d="M1552.651,405.892h-8.15L1548.7,394.8l-12.225-31.461h9.109l5.154,15.162c.838,2.4,1.677,5.394,2.037,6.891.359-1.558,1.2-4.434,2.038-6.891l5.153-15.162h8.869Z" transform="translate(-1337.099 -351.117)" fill="#222"/>
    <path id="Path_1906" data-name="Path 1906" d="M1485.52,394.6V377.584c0-5.633-1.618-7.311-5.034-7.311s-5.093,1.678-5.093,7.131v17.2h-8.271V377.584c0-5.633-1.618-7.311-5.034-7.311s-5.094,1.678-5.094,7.131v17.2h-8.27V363.141h8.27v2.1a9.108,9.108,0,0,1,6.892-2.757c4.015,0,6.353,1.139,8.69,4.016,2.157-2.218,4.794-4.016,10.007-4.016,8.031,0,11.207,5.514,11.207,14.384V394.6Z" transform="translate(-1316.529 -350.915)" fill="#222"/>
  </g>
</svg>
