<svg id="Group_15" data-name="Group 15" xmlns="http://www.w3.org/2000/svg" width="239.933" height="184.881" viewBox="0 0 239.933 184.881">
  <path id="Path_192" data-name="Path 192" d="M1600.993,1082.779c-11.929-9.275-29.355-16.183-35.715-13.929s-11.7,11.969-15.521,19.192-8.837,17.106-7.117,23.633,17.242,17.036,31.626,21.668,28.854-.261,35.808-13.418,2.849-27.868-9.081-37.145" transform="translate(-1438.204 -950.17)" fill="#204696"/>
  <path id="Path_193" data-name="Path 193" d="M1440.683,1055.994c9.444,11.8,24.785,22.568,31.5,21.856s14.165-8.918,19.559-15.054,12.574-14.581,12.419-21.329-12.807-20.579-25.719-28.43-28.121-6.458-37.946,4.72-9.255,26.44.189,38.238" transform="translate(-1433.359 -947.485)" fill="#204696"/>
  <path id="Path_194" data-name="Path 194" d="M1578.149,1042.764c-11.017,10.343-20.547,26.484-19.308,33.119s10,13.42,16.546,18.315,15.525,11.386,22.241,10.7,19.508-14.386,26.319-27.875,4.224-28.543-7.691-37.457-27.088-7.145-38.106,3.2" transform="translate(-1438.936 -948.631)" fill="#204696"/>
  <path id="Path_195" data-name="Path 195" d="M1551.1,1014.506c-11.018,10.342-20.549,26.483-19.31,33.119s10,13.419,16.547,18.314,15.524,11.387,22.241,10.7,19.507-14.385,26.318-27.876,4.225-28.543-7.692-37.457-27.087-7.144-38.1,3.2" transform="translate(-1437.732 -947.374)" fill="#204696"/>
  <path id="Path_196" data-name="Path 196" d="M1490.329,993.379c-4.631,11.293-6.227,26.35-3.094,30.811s11.85,6.511,18.3,7.915,15.226,3.167,19.932.412,9.516-17.111,10-29.306-6.459-22.395-18.2-24.952-22.3,3.826-26.933,15.12" transform="translate(-1435.683 -946.134)" fill="#204696"/>
  <path id="Path_197" data-name="Path 197" d="M1544.811,1065.649c-10.344-11.017-26.484-20.546-33.119-19.309s-13.419,10-18.314,16.547-11.387,15.525-10.7,22.241,14.386,19.507,27.875,26.319,28.542,4.224,37.457-7.692,7.144-27.088-3.2-38.105" transform="translate(-1435.551 -949.182)" fill="#204696"/>
  <path id="Path_198" data-name="Path 198" d="M1672.209,1022.617c-10.344-11.017-26.483-20.548-33.12-19.308s-13.419,10-18.313,16.546-11.387,15.524-10.7,22.24,14.386,19.507,27.876,26.319,28.542,4.224,37.458-7.692,7.144-27.088-3.2-38.105" transform="translate(-1441.217 -947.269)" fill="#204696"/>
  <path id="Path_199" data-name="Path 199" d="M1537.219,1041.237c-4.7-6.256-12.46-12.076-15.944-11.815s-7.472,4.386-10.362,7.474-6.74,7.341-6.769,10.835,6.294,10.854,12.848,15.124,14.446,3.794,19.708-1.831,5.214-13.531.518-19.787" transform="translate(-1436.508 -948.435)" fill="#f47d69"/>
  <path id="Path_200" data-name="Path 200" d="M1473.388,1087.052c5.1-5.931,9.115-14.764,8.113-18.111s-5.89-6.355-9.528-8.514-8.618-5-12.036-4.281-9.247,8.48-12.009,15.8-.6,14.923,6.024,18.854,14.336,2.184,19.436-3.747" transform="translate(-1433.956 -949.618)" fill="#f47d69"/>
  <path id="Path_201" data-name="Path 201" d="M1547.813,1095.042c-3.946,1.816-8.016,5.351-8.281,7.273s1.506,4.57,2.844,6.5,3.2,4.52,5.09,4.944,6.63-2.146,9.716-5.2,3.752-7.4,1.314-10.915-6.736-4.415-10.683-2.6" transform="translate(-1438.08 -951.313)" fill="#f2af99"/>
  <path id="Path_202" data-name="Path 202" d="M1650.714,1086.518c-3-3.145-7.658-5.849-9.564-5.478s-3.837,2.9-5.229,4.8-3.24,4.488-3.028,6.417,4.177,5.577,8.071,7.506,8.215,1.153,10.752-2.293,2-7.8-1-10.948" transform="translate(-1442.233 -950.729)" fill="#f2af99"/>
  <path id="Path_203" data-name="Path 203" d="M1548.337,1034.147c3.817-5.253,6.539-12.835,5.481-15.535s-5.3-4.859-8.46-6.4-7.47-3.554-10.249-2.724-7.075,7.643-8.862,13.887.517,12.387,6.264,15.19,12.01.833,15.826-4.42" transform="translate(-1437.464 -947.54)" fill="#fae2d7"/>
  <path id="Path_204" data-name="Path 204" d="M1493.924,1092.953c6,2.479,14.01,3.347,16.388,1.685s3.479-6.295,4.235-9.723,1.7-8.1.244-10.6-9.089-5.085-15.577-5.359-11.922,3.406-13.3,9.652,2.007,11.869,8.008,14.348" transform="translate(-1435.683 -950.193)" fill="#3b84b1"/>
  <path id="Path_205" data-name="Path 205" d="M1474.077,990.318c4.354,4.818,11.21,9.045,14.072,8.565s5.847-4.187,8-6.958,5.018-6.577,4.779-9.468-6.021-8.5-11.761-11.535-12.229-2.049-16.156,3-3.291,11.58,1.063,16.4" transform="translate(-1435.007 -945.757)" fill="#3b84b1"/>
  <path id="Path_206" data-name="Path 206" d="M1580.937,969.657c-11.017,10.343-20.548,26.482-19.308,33.119s10,13.419,16.546,18.314,15.526,11.387,22.241,10.7,19.507-14.386,26.319-27.876,4.224-28.542-7.692-37.457-27.088-7.145-38.105,3.2" transform="translate(-1439.059 -945.379)" fill="#204696"/>
  <path id="Path_207" data-name="Path 207" d="M1518.964,983.111c4.23,14.508,14.3,30.316,20.779,32.218s16.5-2.84,23.822-6.455,17.185-8.683,19.616-14.98-3.987-23.908-12.928-36.092-23.533-16.7-36.877-10.111-18.641,20.913-14.411,35.419" transform="translate(-1437.104 -944.665)" fill="#204696"/>
  <path id="Path_208" data-name="Path 208" d="M1621.649,1049.328c-4.794,3.6-9.253,9.548-9.054,12.219s3.361,5.725,5.726,7.94,5.627,5.164,8.3,5.186,8.317-4.823,11.589-9.845,2.909-11.07-1.4-15.1-10.37-3.995-15.163-.4" transform="translate(-1441.331 -949.202)" fill="#f47d69"/>
  <path id="Path_209" data-name="Path 209" d="M1514.089,970.718c2.325,5.526,7.01,11.3,9.648,11.754s6.371-1.866,9.094-3.622,6.379-4.2,7.052-6.792-2.656-9.241-6.731-13.636-10.03-5.513-14.99-2.314-6.4,9.085-4.073,14.611" transform="translate(-1436.902 -945.092)" fill="#f47d69"/>
  <path id="Path_210" data-name="Path 210" d="M1591.061,1063.236c-6.728-2.754-15.695-3.7-18.35-1.829s-3.873,7.06-4.706,10.9-1.879,9.069-.237,11.87,10.194,5.66,17.457,5.943,13.335-3.858,14.853-10.853-2.288-13.28-9.017-16.033" transform="translate(-1439.299 -949.814)" fill="#f47d69"/>
  <path id="Path_211" data-name="Path 211" d="M1586.909,953.283c-5.812,4.367-11.216,11.585-10.973,14.822s4.079,6.943,6.95,9.626,6.825,6.262,10.072,6.285,10.083-5.854,14.049-11.947,3.519-13.428-1.711-18.315-12.577-4.839-18.388-.471" transform="translate(-1439.7 -944.905)" fill="#f47d69"/>
  <path id="Path_212" data-name="Path 212" d="M1622.425,1011.953c-7.767-3.178-18.118-4.267-21.186-2.111s-4.469,8.151-5.432,12.585-2.169,10.47-.272,13.7,11.767,6.535,20.154,6.862,15.394-4.452,17.146-12.529-2.642-15.332-10.41-18.51" transform="translate(-1440.528 -947.514)" fill="#f47d69"/>
  <path id="Path_213" data-name="Path 213" d="M1623.7,1047.913c1.818,3.946,5.352,8.016,7.275,8.282s4.57-1.506,6.5-2.845,4.519-3.2,4.944-5.091-2.147-6.629-5.206-9.715-7.4-3.753-10.915-1.314-4.415,6.736-2.6,10.682" transform="translate(-1441.785 -948.716)" fill="#f2af99"/>
  <path id="Path_214" data-name="Path 214" d="M1603.15,1029.424c-3.9-4.359-10.058-8.2-12.637-7.779s-5.285,3.747-7.241,6.232-4.549,5.9-4.347,8.507,5.385,7.683,10.543,10.443,11.006,1.9,14.565-2.629,3.017-10.416-.884-14.774" transform="translate(-1439.833 -948.088)" fill="#fae2d7"/>
  <path id="Path_215" data-name="Path 215" d="M1540.265,984.777c-3.9-4.359-10.057-8.2-12.636-7.779s-5.286,3.746-7.241,6.233-4.549,5.9-4.347,8.506,5.386,7.682,10.542,10.443,11.006,1.9,14.566-2.63,3.016-10.415-.885-14.773" transform="translate(-1437.036 -946.102)" fill="#fae2d7"/>
  <path id="Path_216" data-name="Path 216" d="M1481.5,1034.461c4.826-3.305,9.426-8.915,9.345-11.527s-3.033-5.723-5.246-7.982-5.266-5.275-7.875-5.409-8.312,4.349-11.716,9.1-3.3,10.67.727,14.784,9.939,4.335,14.765,1.03" transform="translate(-1434.703 -947.551)" fill="#fae2d7"/>
  <path id="Path_217" data-name="Path 217" d="M1549.153,1082.476c4.657-2.114,9.47-6.246,9.8-8.507s-1.743-5.39-3.305-7.671-3.732-5.341-5.959-5.853-7.818,2.483-11.471,6.062-4.465,8.685-1.619,12.84,7.9,5.241,12.559,3.129" transform="translate(-1437.875 -949.812)" fill="#fae2d7"/>
  <path id="Path_218" data-name="Path 218" d="M1631.621,1110.208c2.479-6,3.347-14.01,1.686-16.388s-6.3-3.478-9.725-4.234-8.1-1.7-10.6-.245-5.084,9.09-5.359,15.578,3.408,11.921,9.653,13.3,11.869-2.006,14.348-8.008" transform="translate(-1441.109 -951.066)" fill="#3b84b1"/>
  <path id="Path_219" data-name="Path 219" d="M1584.605,1030.916c2.479-6,3.346-14.01,1.686-16.388s-6.3-3.478-9.724-4.234-8.095-1.7-10.6-.246-5.085,9.09-5.359,15.578,3.406,11.921,9.652,13.3,11.87-2.006,14.348-8.008" transform="translate(-1439.019 -947.539)" fill="#3b84b1"/>
  <path id="Path_220" data-name="Path 220" d="M1636.917,977.377c-5.578,3.328-11.063,9.225-11.155,12.124s2.964,6.554,5.259,9.21,5.468,6.209,8.349,6.54,9.512-4.242,13.613-9.277,4.4-11.591.221-16.43-10.713-5.492-16.288-2.166" transform="translate(-1441.917 -946.028)" fill="#3b84b1"/>
  <path id="Path_221" data-name="Path 221" d="M1551.414,1046.132c-4.21-1.073-9.6-.89-11.014.435s-1.708,4.5-1.884,6.84-.362,5.525.842,7.047,6.5,2.507,10.825,2.074,7.573-3.385,7.894-7.653-2.453-7.672-6.663-8.744" transform="translate(-1438.031 -949.147)" fill="#f2af99"/>
  <path id="Path_222" data-name="Path 222" d="M1552.558,969.205c-3.945,1.82-8.01,5.359-8.274,7.28s1.51,4.569,2.85,6.5,3.2,4.517,5.1,4.939,6.628-2.153,9.71-5.214,3.745-7.4,1.3-10.916-6.74-4.409-10.685-2.588" transform="translate(-1438.292 -945.716)" fill="#f2af99"/>
</svg>
