<svg xmlns="http://www.w3.org/2000/svg" width="321.874" height="72.355" viewBox="0 0 321.874 72.355">
  <g id="Group_2" data-name="Group 2" transform="translate(-219.317 -184)">
    <path id="Path_1" data-name="Path 1" d="M62.7,42.094c.493-16.069-4.346-35.382-10.11-39.441S35.442.084,27.069,1.323,7.366,4.437,2.952,10-.8,35.5,4.091,50.774s17.8,24.65,33.054,22.392S62.208,58.163,62.7,42.094Z" transform="translate(219.317 246.126) rotate(-82)" fill="#222"/>
    <g id="Group_1" data-name="Group 1" transform="translate(322.406 197.93)">
      <path id="Path_1572" data-name="Path 1572" d="M1287.875,389.249h-11.824v-39.6h12.39c11.316,0,19.69,5.318,19.69,19.8C1308.131,383.366,1298.06,389.249,1287.875,389.249Zm.283-31.91h-4.186v24.216h3.9c8.317,0,12.108-4.866,12.108-12.108C1299.983,361.356,1296.532,357.339,1288.158,357.339Z" transform="translate(-1276.051 -348.003)" fill="#222"/>
      <path id="Path_1573" data-name="Path 1573" d="M1346.959,372.213a6.732,6.732,0,0,0-4.526-1.923c-3.055,0-5.035,1.3-5.035,6.45v16.068h-7.808V363.1h7.808v1.98a8.222,8.222,0,0,1,6.111-2.6,7.593,7.593,0,0,1,5.487,2.094Z" transform="translate(-1290.892 -351.562)" fill="#222"/>
      <path id="Path_1574" data-name="Path 1574" d="M1386.609,380.474h-17.766c.283,4.074,3.281,5.6,6.111,5.6a6.63,6.63,0,0,0,5.091-2.093l5.545,4.639a13.859,13.859,0,0,1-10.636,4.81c-8.543,0-13.975-6.054-13.975-15.446,0-9.109,5.714-15.5,13.239-15.5,7.921,0,12.5,7.016,12.5,15.5A24.438,24.438,0,0,1,1386.609,380.474Zm-12.787-11.2c-2.829,0-4.583,2.319-4.865,5.318h10.183C1378.914,371.93,1377.33,369.271,1373.822,369.271Z" transform="translate(-1299.593 -351.562)" fill="#222"/>
      <path id="Path_1575" data-name="Path 1575" d="M1421.012,392.807v-1.98a9.484,9.484,0,0,1-6.677,2.6c-5.545,0-11.09-3.395-11.09-10.581,0-6.563,5.319-9.845,12.052-9.845a12.31,12.31,0,0,1,5.715,1.189v-1.472c0-2.093-1.415-3.791-4.244-3.791a14.646,14.646,0,0,0-8.147,1.981l-3-5.432a19.98,19.98,0,0,1,11.146-3c7.185,0,12.051,3.735,12.051,10.411v19.915Zm0-12.447c-1.358-.849-2.66-1.245-5.431-1.245-2.943,0-4.527,1.358-4.527,3.734,0,2.094,1.188,3.961,4.527,3.961a6.388,6.388,0,0,0,5.431-2.716Z" transform="translate(-1311.309 -351.562)" fill="#222"/>
      <path id="Path_1576" data-name="Path 1576" d="M1483.464,392.807V376.74c0-5.318-1.527-6.9-4.752-6.9s-4.809,1.584-4.809,6.733v16.238h-7.808V376.74c0-5.318-1.527-6.9-4.752-6.9s-4.81,1.584-4.81,6.733v16.238h-7.808V363.1h7.808v1.98a8.6,8.6,0,0,1,6.507-2.6c3.79,0,6,1.075,8.2,3.792,2.036-2.094,4.526-3.792,9.448-3.792,7.582,0,10.58,5.206,10.58,13.58v16.747Z" transform="translate(-1323.916 -351.562)" fill="#222"/>
      <path id="Path_1577" data-name="Path 1577" d="M1518.077,388.62V351.278l7.809-3.9V388.62Z" transform="translate(-1343.14 -347.374)" fill="#222"/>
      <path id="Path_1578" data-name="Path 1578" d="M1551.748,403.514h-7.694l3.96-10.468-11.542-29.7h8.6l4.866,14.314c.792,2.263,1.584,5.092,1.923,6.506.339-1.471,1.132-4.187,1.924-6.506l4.865-14.314h8.374Z" transform="translate(-1348.24 -351.801)" fill="#222"/>
      <path id="Path_1906" data-name="Path 1906" d="M1483.464,392.807V376.74c0-5.318-1.527-6.9-4.752-6.9s-4.809,1.584-4.809,6.733v16.238h-7.808V376.74c0-5.318-1.527-6.9-4.752-6.9s-4.81,1.584-4.81,6.733v16.238h-7.808V363.1h7.808v1.98a8.6,8.6,0,0,1,6.507-2.6c3.79,0,6,1.075,8.2,3.792,2.036-2.094,4.526-3.792,9.448-3.792,7.582,0,10.58,5.206,10.58,13.58v16.747Z" transform="translate(-1323.916 -351.562)" fill="#222"/>
    </g>
  </g>
</svg>
